<?xml version="1.0" encoding="UTF-8"?>
<svg xmlns="http://www.w3.org/2000/svg" xmlns:xlink="http://www.w3.org/1999/xlink" viewBox="0 0 620.33 505.32">
  <defs>
    <style>
      .cls-1 {
        isolation: isolate;
      }

      .cls-2 {
        fill: none;
      }

      .cls-2, .cls-3, .cls-4, .cls-5 {
        stroke-width: 0px;
      }

      .cls-6 {
        clip-path: url(#clippath-1);
      }

      .cls-3 {
        fill: #fff;
      }

      .cls-7 {
        mix-blend-mode: multiply;
        opacity: .1;
      }

      .cls-8 {
        clip-path: url(#clippath);
      }

      .cls-4 {
        fill: #414042;
      }

      .cls-5 {
        fill: #fba919;
      }
    </style>
    <clipPath id="clippath">
      <rect class="cls-2" x="259.88" y="153.81" width="101.18" height="44.1"/>
    </clipPath>
    <clipPath id="clippath-1">
      <rect class="cls-2" x="380.83" y="89.84" width="43.79" height="51.71"/>
    </clipPath>
  </defs>
  <g class="cls-1">
    <g id="Layer_1" data-name="Layer 1">
      <g>
        <g id="Artwork_4" data-name="Artwork 4">
          <g>
            <path class="cls-5" d="M493.9,166.77c-1-13.91-7.48-30.58-45.52-19.78-19.65,5.58-37.67,5.81-45.46-1.85h0c-.98-1.25-1.82-2.44-2.61-3.59-2.93-5.97-1.65-14.96,5.75-27.54,5.32-9.07,11.25-11.09,18.52-11.12,6.08-.03,13.07,1.31,21.47,1.11,26.39-.63,36.51-17.19,35.37-32.34-.36-4.63-6.33-3.16-17.83-5.93-11.52-2.77-20.68-1.37-22.95-17.53-.66-4.75-6.68-14.83-20.76-17.01-9.27-1.43-29.04-10.88-43.78.98l-12.8-5.56c-8.6-2.15-7.91,3.72-16.12,6.62-7.31,2.59-21.45-4.24-17.64,5.25,3.12,7.77,15.7,17.94,31.06,13.02-9.11,45.87-53.17,56.24-89.88,54.81-48.84-1.9-86.91-43.04-85.01-91.89.54-14.15-4.07-18.19-8.51-10.85-1.34,2.23-2.68,5.51-3.84,9.87-.42,1.41-.81,2.98-1.13,4.67-3.87,20.43.99,60.85,34.85,87.51,0,0-11.31,9.16-15.17,26.41-2.21,9.88-1.34,17.71-.54,21.76.39,1.93.75,3,.75,3,3.17,15.12-25.08,25.23-37.28,27.32-.93.15-1.84.26-2.73.32-1.73.12-3.36.07-4.93-.03-2.19-.08-3.99-.25-5.43-.5-7.39-.6-12.77.54-17.54,18.93-6.67,25.78-26.17,19.97-30.79,27.28-7.34,11.63,3.59,20.42,17.48,21.18,8.34.45,17.76-2,24.94-8.47,24.03-21.68,12.5-31.27,36.37-29.68,3.05.2,6.67.57,11.03,1.14,26.42,3.44,45.2,8.92,71.26-19.13,0,0,2.21-3.3,5.39-5.91,1.36-1.12,2.9-2.12,4.52-2.67.68-.5,4.08-.34,4.59-.17.04.01.08.03.12.04,10.14,2.31,32.77,14.76,58.32,10.58,10.18-3.7,19.31-9.47,26.91-16.81h0s4.1-3.6,6.72-.32c3.45,3.78,6.91,10.31,10.71,14.42,9.13,9.87,9.32,5.82,28.62-2.05,1.91-.79,4.01-1.6,6.34-2.45,50.37-18.39,49.34-24.3,59.37-4.24,1.84,3.67,8.27,4.08,14.48,1.52,7.19-2.96,14.08-9.88,13.32-20.35"/>
            <g class="cls-7">
              <g class="cls-8">
                <path class="cls-4" d="M336.69,175.91c-12.83,26.62-59.63,9.69-60.74,3.92.19-4.01,3.31-12.85.3-9.83-2.92,2.93-12.71,14.82-16.36,19.28,1.37-1.12,2.9-2.12,4.53-2.67.68-.5,4.08-.34,4.59-.17.04.01.08.03.12.04,10.14,2.32,32.76,14.76,58.32,10.57,10.18-3.69,19.31-9.47,26.91-16.81h0s4.1-3.6,6.72-.32c0,0-10.72-17.98-15.13-25.25-2.67-4.43-3.21,8.68-9.25,21.23"/>
              </g>
            </g>
            <g class="cls-7">
              <g class="cls-6">
                <path class="cls-4" d="M399.1,93.94c-4.4-8.36-25.33-2.43-15.83,4.48,24.9,18.05.44,18.88,17.04,43.14-2.93-5.97-1.65-14.96,5.75-27.54,5.32-9.07,11.25-11.09,18.52-11.12h.03s-21.12-.61-25.52-8.95"/>
              </g>
            </g>
          </g>
        </g>
        <g>
          <path class="cls-3" d="M463.62,309.64h32.5v71.62c1.85-2.55,3.23-4.78,4.91-6.74,6.55-7.6,15.05-11.78,24.77-13.53,11.14-2.01,22.13-1.35,32.66,3.03,13.22,5.49,21.31,15.64,25.58,29.06,2.46,7.74,3.23,15.73,3.26,23.81.06,15.02,0,30.03.08,45.05.01,2.16.36,4.37.89,6.47.88,3.48,3.21,5.23,6.77,5.36,2.01.08,4.02.01,6.18.01.04.48.12,1.08.12,1.69,0,7.9.03,15.8-.04,23.7,0,.76-.53,2.08-1.01,2.17-10.83,2.19-21.61,2.77-31.69-2.81-8.02-4.44-11.56-12.01-13.07-20.63-.66-3.75-.95-7.6-.97-11.41-.11-15.25-.05-30.5-.04-45.75,0-5.6-.77-11.06-3.06-16.2-4.57-10.25-14.68-16-26.47-15.11-16.77,1.27-28.46,13.18-28.64,30.02-.29,26.2-.14,52.4-.17,78.6,0,1.01,0,2.02,0,3.21h-32.56v-191.6Z"/>
          <path class="cls-3" d="M221.27,411.78c-5.37-22.98-18.54-39.62-40.82-48.31-14.08-5.49-28.66-5.99-43.32-2.78-22.67,4.96-39.42,17.65-48.77,39.11-7.69,17.66-8.36,36.05-3.71,54.6,4.03,16.1,12.79,29.25,26.92,38.07,23.13,14.44,47.89,15.71,73.33,7.21,11.32-3.78,20.55-10.98,28.88-19.74-6.66-6.46-13.2-12.81-19.49-18.92-4.3,3.23-8.15,6.75-12.56,9.33-12.41,7.26-25.78,7.82-39.41,4.37-10.59-2.68-18.71-8.8-23.67-18.69-2.43-4.83-3.77-9.99-3.84-15.77h107.71c1.21-9.14,1.07-18.61-1.24-28.49ZM189.45,417.07h-73.73c.06-4.56,1.6-8.51,3.9-12.14,6.58-10.4,16.46-15.65,28.31-17.5,10.18-1.59,19.77.21,28.32,6.13,7.69,5.33,12.51,12.5,13.19,22.08.03.38,0,.76,0,1.42Z"/>
          <path class="cls-3" d="M447.67,382.19c-.61.68-1.06,1.2-1.54,1.7-6.24,6.47-12.47,12.94-18.72,19.41-19.74-21.34-52.63-18.34-67.84-.5-13.91,16.31-13.32,44.17,2.03,60.07,15.46,16.02,46.42,17.94,65.76-2.69,6.76,7.03,13.52,14.05,20.34,21.14-10.79,11.51-23.54,19.35-38.89,22.27-23.09,4.39-44.66.57-63.68-13.79-16.56-12.5-25.85-29.35-27.96-50-2.1-20.53,3.03-39.06,16.31-55.01,11.16-13.41,25.59-21.59,42.62-24.9,17.92-3.49,35.29-1.7,51.66,6.87,7.48,3.91,13.96,9.15,19.92,15.43Z"/>
          <path class="cls-3" d="M305.57,474.33v29.43c-2.89.39-5.85.95-8.84,1.17-9.16.68-18.28.6-27.13-2.3-13.56-4.44-21.17-14.23-23.95-27.81-1.21-5.92-1.71-12.08-1.77-18.14-.21-20.33-.08-40.67-.08-61,0-.92,0-1.84,0-3.01h-17.18v-29.96h17.13v-53.04h33.07v52.9h30.5v30.02h-30.23c-.07.88-.15,1.49-.15,2.09,0,20.8-.02,41.61.07,62.41,0,2.39.4,4.83.97,7.17,1.65,6.79,6.43,10.61,13.45,10.9,2.34.1,4.7.12,7.03-.02,2.33-.14,4.64-.51,7.12-.8Z"/>
          <path class="cls-3" d="M22.53,461.65c-.01,2.16-.36,4.37-.89,6.47-.88,3.48-3.21,5.23-6.77,5.36-2.01.08-4.02.01-6.18.01-.04.48-.12,1.08-.12,1.69,0,7.9-.03,15.8.04,23.7,0,.76.53,2.08,1.01,2.17,10.83,2.19,21.61,2.77,31.69-2.81,8.02-4.44,11.56-12.01,13.07-20.63.66-3.75,1.11-11.67,1.11-11.67v-73.35h25.94v-29.98h-25.94c0-4.41-.28-8.49.05-12.52.94-11.52,5.95-16.15,17.47-16.21,4.34-.02,8.69.39,13.19.61v-27.59c-.39-.09-.67-.18-.97-.22-9.66-1.34-19.34-1.52-28.95.09-14.39,2.42-24.87,10.09-30.27,23.9-2.73,6.98-3.46,14.39-3.5,21.85-.02,3.27,0,6.53,0,10.11H0v30.07h22.52c0,36.4,0,68.95,0,68.95Z"/>
        </g>
        <path class="cls-3" d="M620.33,375.71c0,4.93-3.97,8.84-9,8.84s-9.06-3.91-9.06-8.84,4.02-8.79,9.11-8.79,8.95,3.86,8.95,8.79ZM604.52,375.71c0,3.91,2.95,7.02,6.86,7.02,3.8.05,6.7-3.11,6.7-6.97s-2.89-7.08-6.8-7.08-6.75,3.16-6.75,7.02ZM609.93,380.26h-2.04v-8.79c.81-.11,1.93-.27,3.38-.27,1.66,0,2.41.27,3,.7.54.38.91,1.02.91,1.88,0,1.07-.81,1.77-1.82,2.09v.11c.86.27,1.29.96,1.56,2.14.27,1.34.48,1.82.64,2.14h-2.14c-.27-.32-.43-1.07-.7-2.14-.16-.91-.7-1.34-1.82-1.34h-.97v3.48ZM609.98,375.33h.96c1.13,0,2.04-.38,2.04-1.29,0-.81-.59-1.34-1.88-1.34-.54,0-.91.05-1.13.11v2.52Z"/>
      </g>
    </g>
  </g>
</svg>